<svg viewBox="0 0 81 80" xmlns="http://www.w3.org/2000/svg" xmlns:xlink="http://www.w3.org/1999/xlink"><style>:root&gt;svg{display:none}:root&gt;svg:target{display:block}</style><svg fill="none" viewBox="0 0 25 24" id="arrow-right" xmlns="http://www.w3.org/2000/svg"><path d="M5.5 12h14m-7-7l7 7-7 7" stroke="#fff" stroke-width="2" stroke-linecap="round" stroke-linejoin="round"/></svg><svg fill="none" viewBox="0 0 24 24" id="arrow-right-black" xmlns="http://www.w3.org/2000/svg"><path d="M5 12h14m-7-7l7 7-7 7" stroke="#323232" stroke-width="2" stroke-linecap="round" stroke-linejoin="round"/></svg><svg fill="none" viewBox="0 0 48 48" id="arrow-right-slider" xmlns="http://www.w3.org/2000/svg"><circle cx="24" cy="24" r="24" fill="#007FA7"/><path d="M17 24h14m-7-7l7 7-7 7" stroke="#fff" stroke-width="2" stroke-linecap="round" stroke-linejoin="round"/></svg><svg fill="none" viewBox="0 0 28 28" id="burger-menu" xmlns="http://www.w3.org/2000/svg"><path d="M3.5 14h21m-21-7h21m-21 14h21" stroke="#323232" stroke-width="2" stroke-linecap="round" stroke-linejoin="round"/></svg><svg fill="none" viewBox="0 0 81 80" id="cogwheels" xmlns="http://www.w3.org/2000/svg"><g clip-path="url(#eclip0_167_175)" fill="#323232"><path d="M19.855 33.548v-2.58c-6.404 0-11.613-5.21-11.613-11.613h-2.58c0 7.826 6.367 14.193 14.193 14.193z"/><path d="M19.855 28.387c4.979 0 9.032-4.053 9.032-9.032 0-4.98-4.053-9.032-9.032-9.032-4.98 0-9.033 4.053-9.033 9.032s4.054 9.032 9.033 9.032zm0-15.484a6.46 6.46 0 016.451 6.452 6.46 6.46 0 01-6.451 6.451 6.46 6.46 0 01-6.452-6.451 6.46 6.46 0 016.452-6.452z"/><path d="M19.855 23.226a3.876 3.876 0 003.87-3.871 3.876 3.876 0 00-3.87-3.871 3.876 3.876 0 00-3.871 3.87 3.876 3.876 0 003.87 3.872zm0-5.162a1.291 1.291 0 11-.002 2.583 1.291 1.291 0 01.002-2.582z"/><path d="M80.5 61.561v-9.574l-3.492-1.218a20.61 20.61 0 00-1.533-3.706l1.608-3.326-1.246-1.247c-.577-.757-1.524-1.757-2.24-2.481a56.234 56.234 0 00-2.618-2.491l-8.585-7.508.737-2.21 2.987 1.494 4.965-4.965-1.494-2.987 3.17-1.057v-7.02l-3.17-1.056 1.494-2.987-4.965-4.965-2.987 1.494-1.055-3.17h-7.021L53.999 5.75l-2.987-1.495-4.965 4.966 1.494 2.987-3.17 1.055v.985L33.751 4.96A20.04 20.04 0 0020.548 0v.035C20.317.027 20.09 0 19.855 0 9.183 0 .5 8.683.5 19.355c0 .235.027.462.035.694H.5a20.04 20.04 0 004.96 13.2l9.294 10.622h-.991l-1.055 3.17-2.987-1.495-4.966 4.965 1.495 2.987-3.17 1.055v7.022l3.17 1.055-1.495 2.987 4.966 4.965 2.987-1.494 1.055 3.17h7.021l1.056-3.169 2.986 1.494 4.966-4.965-1.495-2.987 2.225-.74 7.49 8.56a59.09 59.09 0 002.296 2.437c.784.788 1.864 1.828 2.674 2.446l1.251 1.25 3.327-1.607a20.699 20.699 0 003.705 1.533L52.487 80h9.574l1.218-3.492a20.61 20.61 0 003.706-1.533l3.327 1.608 6.771-6.771-1.608-3.327a20.705 20.705 0 001.533-3.706l3.492-1.218zM39.073 47.063a20.705 20.705 0 00-1.533 3.706l-3.492 1.218v9.574l3.492 1.218a20.61 20.61 0 001.533 3.706l-.391.809-26.345-30.105a19.248 19.248 0 007.518 1.52c10.672 0 19.355-8.682 19.355-19.354 0-2.667-.542-5.21-1.522-7.523l30.123 26.342-.825.399a20.686 20.686 0 00-3.706-1.533l-1.219-3.492h-9.574L51.27 37.04a20.61 20.61 0 00-3.706 1.533l-3.326-1.608-6.772 6.772 1.608 3.326zm7.879-31.939l2.962-.987.217-.572c.063-.167.129-.328.199-.488l.25-.558-1.395-2.79 2.334-2.334 2.79 1.395.558-.25a9.69 9.69 0 01.489-.2l.571-.216.987-2.963h3.302l.987 2.963.572.216c.166.064.328.13.488.2l.558.25 2.79-1.395 2.334 2.334-1.395 2.79.25.558c.072.16.136.321.2.488l.216.572 2.961.987v3.301l-2.962.988-.217.571c-.063.167-.129.328-.199.488l-.25.559 1.395 2.79-2.334 2.334-2.79-1.395-.558.25a9.67 9.67 0 01-.489.2l-.571.216-.914 2.743-13.336-11.665v-1.38zM19.855 2.581c9.249 0 16.774 7.525 16.774 16.774s-7.525 16.774-16.774 16.774c-9.25 0-16.774-7.525-16.774-16.774 0-9.25 7.525-16.774 16.774-16.774zm6.07 58.12l-.217.572c-.064.167-.13.329-.2.489l-.25.558 1.396 2.79-2.335 2.334-2.79-1.395-.558.25c-.16.071-.321.136-.488.2l-.572.216-.987 2.962h-3.301l-.987-2.962-.572-.217a10.147 10.147 0 01-.488-.199l-.558-.25-2.789 1.395-2.334-2.334 1.395-2.79-.25-.558a9.614 9.614 0 01-.2-.489l-.216-.571-2.963-.987v-3.302l2.963-.987.216-.572c.064-.166.13-.328.2-.488l.25-.558-1.395-2.789 2.334-2.334 2.79 1.395.558-.25c.16-.071.321-.136.488-.2l.572-.216.987-2.962h1.39L28.68 59.785l-2.755.917zm48.957.087l-.177.66a17.958 17.958 0 01-1.798 4.35l-.344.592 1.398 2.892-4.179 4.179-2.892-1.398-.592.344a18.078 18.078 0 01-4.35 1.798l-.66.177-1.059 3.037h-5.91l-1.059-3.037-.66-.177a17.958 17.958 0 01-4.35-1.798l-.592-.344-2.892 1.398-4.178-4.179 1.397-2.892-.343-.592a18.078 18.078 0 01-1.799-4.35l-.177-.66-3.037-1.059v-5.91l3.038-1.059.176-.66a17.958 17.958 0 011.799-4.35l.343-.592-1.397-2.892 4.178-4.178 2.892 1.397.593-.343a18.078 18.078 0 014.35-1.799l.66-.177 1.058-3.037h5.91l1.06 3.038.659.176a17.958 17.958 0 014.35 1.799l.592.343 2.892-1.397 4.179 4.178-1.398 2.892.344.593a18.078 18.078 0 011.798 4.35l.177.66 3.037 1.058v5.91l-3.037 1.06z"/><path d="M57.274 43.871c-7.115 0-12.903 5.788-12.903 12.903s5.788 12.903 12.903 12.903 12.903-5.788 12.903-12.903-5.788-12.903-12.903-12.903zm0 23.226c-5.692 0-10.322-4.631-10.322-10.323s4.63-10.322 10.322-10.322c5.692 0 10.323 4.63 10.323 10.322 0 5.692-4.631 10.323-10.323 10.323z"/><path d="M57.274 49.032c-4.27 0-7.742 3.472-7.742 7.742s3.472 7.742 7.742 7.742 7.742-3.472 7.742-7.742-3.472-7.742-7.742-7.742zm0 12.904a5.166 5.166 0 01-5.161-5.162 5.166 5.166 0 015.161-5.161 5.166 5.166 0 015.161 5.161 5.166 5.166 0 01-5.16 5.161zm7.742-45.162a6.46 6.46 0 00-6.452-6.451 6.46 6.46 0 00-6.451 6.451 6.46 6.46 0 006.451 6.452 6.46 6.46 0 006.452-6.452zm-10.323 0a3.876 3.876 0 013.871-3.87 3.876 3.876 0 013.871 3.87 3.876 3.876 0 01-3.87 3.871 3.876 3.876 0 01-3.872-3.87zM10.822 58.065a6.46 6.46 0 006.452 6.451 6.46 6.46 0 006.452-6.452 6.46 6.46 0 00-6.452-6.451 6.46 6.46 0 00-6.452 6.452zm10.323 0a3.876 3.876 0 01-3.87 3.87 3.876 3.876 0 01-3.872-3.87 3.876 3.876 0 013.871-3.871 3.876 3.876 0 013.871 3.87z"/></g><defs><clipPath id="eclip0_167_175"><path fill="#fff" transform="translate(.5)" d="M0 0h80v80H0z"/></clipPath></defs></svg><svg fill="none" viewBox="0 0 81 80" id="factory" xmlns="http://www.w3.org/2000/svg"><path d="M77.928 27.384a4.492 4.492 0 00-4.44-5.129c-.99 0-1.926.32-2.69.895a6.214 6.214 0 00-4.57-2 6.228 6.228 0 00-6.048 4.757 6.187 6.187 0 00-4.653 2.745 4.491 4.491 0 00-5.932 4.491 6.222 6.222 0 00-4.167 4.784 6.237 6.237 0 00-5.357 5.005h-.518a2.753 2.753 0 00-2.75 2.75v3.157a2.753 2.753 0 002.425 2.73L36.965 78.73a1.172 1.172 0 002.335.194l2.278-27.336h18.363l.454 5.457a1.172 1.172 0 102.336-.194l-.44-5.284a2.753 2.753 0 002.425-2.73v-3.156a2.752 2.752 0 00-1.474-2.434 6.2 6.2 0 00.804-1.092 9.074 9.074 0 004.55 1.226 9.007 9.007 0 008.238-5.285 6.231 6.231 0 003.666-5.673c0-2.023-.966-3.88-2.572-5.04zM62.373 48.84a.407.407 0 01-.407.407H39.553a.407.407 0 01-.407-.407v-3.157c0-.224.183-.406.407-.406h22.413c.224 0 .407.182.407.406v3.157zm13.185-12.754l-.013.005a3.877 3.877 0 01-3.814-.74 1.172 1.172 0 10-1.538 1.769 6.217 6.217 0 003.566 1.505 6.677 6.677 0 01-5.164 2.414 6.725 6.725 0 01-4.314-1.57 1.173 1.173 0 00-1.884.595 3.883 3.883 0 01-3.746 2.869h-.636a4.492 4.492 0 00-.504-5.026 1.172 1.172 0 10-1.795 1.506 2.145 2.145 0 01-1.642 3.52h-11.59a3.886 3.886 0 013.94-2.699 1.172 1.172 0 001.246-1.17v-.021A3.874 3.874 0 0151.1 35.2a1.173 1.173 0 00.965-1.568 2.137 2.137 0 01-.133-.736c0-1.182.96-2.143 2.142-2.143.452 0 .887.142 1.257.411l.018.012a2.14 2.14 0 01.868 1.72 1.172 1.172 0 102.344 0c0-1.118-.413-2.14-1.092-2.927a3.858 3.858 0 013.606-1.723 1.173 1.173 0 001.281-1.1 3.88 3.88 0 017.292-1.606c0 .002.002.003.003.005a3.83 3.83 0 01.456 1.826c0 .416-.065.824-.193 1.213a1.172 1.172 0 002.227.732 6.22 6.22 0 00-.096-4.154c.39-.36.9-.564 1.443-.564 1.182 0 2.143.96 2.143 2.142 0 .26-.049.517-.145.767-.214.559.026 1.19.559 1.463a3.866 3.866 0 012.111 3.452 3.884 3.884 0 01-2.598 3.662z" fill="#323232"/><path d="M43.026 28.071c3.2 0 6.151-1.7 7.775-4.408a6.546 6.546 0 007.756-7.837 6.536 6.536 0 003.003-5.5 6.546 6.546 0 00-7.048-6.518A9.109 9.109 0 0047.129 0a9.061 9.061 0 00-7.005 3.313 8.966 8.966 0 00-2.414-.125 3.696 3.696 0 00-3.05-1.61 3.724 3.724 0 00-3.067 1.638c-.29-.04-.584-.06-.879-.06-3.207 0-5.882 2.321-6.434 5.371-4.508.137-8.198 3.58-8.722 7.982a6.542 6.542 0 00-4.096 2.486 3.702 3.702 0 00-4.328 3.825 6.57 6.57 0 00-2.895 4.328h-.357a2.753 2.753 0 00-2.75 2.75v3.157a2.753 2.753 0 002.44 2.731L.502 78.745a1.172 1.172 0 002.338.167l3.08-43.107h19.915l.54 7.564a1.172 1.172 0 002.338-.167l-.53-7.415a2.754 2.754 0 002.44-2.732v-3.157c0-.896-.433-1.69-1.098-2.193a6.511 6.511 0 001.273-1.665 6.594 6.594 0 003.025-.083 3.662 3.662 0 001.626.378 3.67 3.67 0 001.713-.419 9.1 9.1 0 005.864 2.155zm-7.577-4.08a1.34 1.34 0 01-.79-.258 1.173 1.173 0 00-1.089-.151 4.217 4.217 0 01-2.053.2 6.557 6.557 0 00-.687-3.852 1.172 1.172 0 00-2.077 1.085c.44.91.651 1.986.267 3.24a4.184 4.184 0 01-3.988 2.893H14.816a1.172 1.172 0 100 2.344h13.057c.224 0 .407.182.407.406v3.157a.407.407 0 01-.407.407H3.882a.407.407 0 01-.407-.407v-3.157c0-.224.182-.406.407-.406h5.452a1.172 1.172 0 100-2.344H6.643a4.212 4.212 0 012.28-2.642c.544-.25.813-.87.622-1.438a1.347 1.347 0 011.282-1.784c.21 0 .412.05.604.145.564.283 1.25.068 1.553-.485a4.198 4.198 0 016.587-1.017 1.168 1.168 0 001.657-.034 1.172 1.172 0 00-.034-1.656 6.506 6.506 0 00-3.272-1.701c.506-3.208 3.289-5.669 6.637-5.669 1.141-.032 2.802.44 3.896 1.245a1.168 1.168 0 001.635-.274 1.172 1.172 0 00-.273-1.634 8.995 8.995 0 00-3.192-1.44 4.201 4.201 0 015.284-3.09 1.17 1.17 0 001.455-.787 1.352 1.352 0 012.574-.05c.188.546.746.874 1.316.772a6.693 6.693 0 013.028.147 1.172 1.172 0 001.288-.468 6.72 6.72 0 015.56-2.944 6.753 6.753 0 015.795 3.32c.254.432.755.655 1.246.554a4.2 4.2 0 015.045 4.109 4.195 4.195 0 01-2.53 3.85c-.584.253-.86.927-.62 1.516a4.2 4.2 0 01-4.31 5.751 9.062 9.062 0 00-.881-6.97 1.172 1.172 0 00-2.028 1.175 6.715 6.715 0 01.898 3.359c0 .957-.197 1.88-.584 2.744l-.015.028a6.737 6.737 0 01-6.12 3.948 6.655 6.655 0 01-4.91-2.133 1.172 1.172 0 00-.844-.372h-.011c-.317 0-.62.129-.841.356a1.342 1.342 0 01-.97.412z" fill="#323232"/><path d="M44.752 10.867c.647 0 1.172-.525 1.172-1.172a1.003 1.003 0 012.002 0 1.172 1.172 0 102.344 0c0-1.844-1.5-3.345-3.345-3.345a3.349 3.349 0 00-3.345 3.345c0 .647.525 1.172 1.172 1.172zm-3.241 7.978a3.35 3.35 0 000-4.73 1.172 1.172 0 00-1.657 1.657 1.002 1.002 0 01-1.416 1.415 1.172 1.172 0 00-1.657 1.658 3.335 3.335 0 002.365.978c.856 0 1.713-.326 2.365-.978zM29.103 48.663a1.17 1.17 0 10-2.338.167l2.149 30.082a1.172 1.172 0 002.338-.167l-2.149-30.082zm34.083 13.65a1.172 1.172 0 00-2.336.195l1.369 16.417a1.172 1.172 0 102.336-.194l-1.369-16.418zm1.19-32.761a3.349 3.349 0 00-3.345 3.345 1.172 1.172 0 102.343 0 1.003 1.003 0 012.003 0 1.172 1.172 0 102.344 0c0-1.844-1.5-3.345-3.345-3.345z" fill="#323232"/></svg><svg fill="none" viewBox="0 0 81 80" id="industrial" xmlns="http://www.w3.org/2000/svg"><g clip-path="url(#gclip0_167_142)" fill="#323232"><path d="M34.253 54.8a1.257 1.257 0 01-1.701-.496 1.253 1.253 0 01.496-1.698l15.947-8.813a1.273 1.273 0 011.7.496c.107.195.143.407.143.602v33.866c0 .69-.55 1.24-1.24 1.24-.691 0-1.258-.55-1.258-1.24V47.014L34.252 54.8zm42.08-11.413c.691 0 1.24.549 1.24 1.239 0 .69-.549 1.256-1.24 1.256H58.474c-.69 0-1.258-.566-1.258-1.256 0-.69.567-1.24 1.258-1.24h17.86zm2.338 26.807c.691 0 1.259.549 1.259 1.238 0 .69-.567 1.257-1.259 1.257H56.117c-.69 0-1.24-.566-1.24-1.257 0-.69.55-1.238 1.24-1.238h22.554zm-1.523-19.322c.691 0 1.258.549 1.258 1.238 0 .69-.566 1.257-1.258 1.257H57.641c-.69 0-1.258-.566-1.258-1.257 0-.69.567-1.238 1.258-1.238h19.507z"/><path d="M8.935 63.894c0 .69-.55 1.238-1.24 1.238a1.247 1.247 0 01-1.259-1.238v-4.158c0-.69.567-1.256 1.258-1.256h4.164c.69 0 1.258.566 1.258 1.256 0 .69-.567 1.238-1.258 1.238H8.935v2.92zm32.122 10.83c0 .69-.567 1.256-1.258 1.256a1.262 1.262 0 01-1.258-1.256v-4.158c0-.69.567-1.257 1.258-1.257h4.163c.691 0 1.259.567 1.259 1.257s-.567 1.238-1.258 1.238h-2.906v2.92zm-16.158 0c0 .69-.567 1.256-1.258 1.256a1.262 1.262 0 01-1.258-1.256v-4.158c0-.69.566-1.257 1.258-1.257h4.163c.691 0 1.258.567 1.258 1.257s-.567 1.238-1.258 1.238h-2.905v2.92zm-15.964 0c0 .69-.55 1.256-1.24 1.256a1.262 1.262 0 01-1.259-1.256v-4.158c0-.69.567-1.257 1.258-1.257h4.164c.69 0 1.258.567 1.258 1.257s-.567 1.238-1.258 1.238H8.935v2.92zm32.122-10.83c0 .69-.567 1.238-1.258 1.238a1.246 1.246 0 01-1.258-1.238v-4.158c0-.69.567-1.256 1.258-1.256h4.163c.691 0 1.259.566 1.259 1.256 0 .69-.567 1.238-1.258 1.238h-2.906v2.92zm-16.158 0c0 .69-.567 1.238-1.258 1.238a1.247 1.247 0 01-1.258-1.238v-4.158c0-.69.566-1.256 1.258-1.256h4.163c.691 0 1.258.566 1.258 1.256 0 .69-.567 1.238-1.258 1.238h-2.905v2.92z"/><path d="M18.396 56.64a1.261 1.261 0 01-1.736-.354c-.372-.566-.23-1.345.354-1.716l15.945-10.705a1.231 1.231 0 011.72.336c.142.212.212.46.212.69v33.866c0 .69-.549 1.24-1.24 1.24a1.247 1.247 0 01-1.258-1.24v-31.53L18.396 56.64z"/><path d="M18.946 78.757c0 .69-.55 1.24-1.24 1.24-.691 0-1.259-.55-1.259-1.24V47.014L3 54.446v24.31c0 .69-.55 1.24-1.24 1.24-.691 0-1.259-.55-1.259-1.24V53.704c0-.442.23-.867.656-1.097l15.875-8.76c.195-.123.425-.194.673-.194.692 0 1.24.548 1.24 1.238v33.867zM50.2 54.8a1.256 1.256 0 01-1.701-.496 1.252 1.252 0 01.496-1.698l8.31-4.583a1.23 1.23 0 011.682.496c.337.6.124 1.362-.478 1.68l-8.31 4.601zm-3.81-13.997a1.25 1.25 0 01-1.612.708c-.639-.247-.975-.973-.727-1.61.337-.85.603-1.77.762-2.707.16-.92.23-1.858.195-2.814-.106-3.875-1.789-7.326-4.412-9.803a14.015 14.015 0 00-10.063-3.804c-3.88.106-7.335 1.788-9.816 4.406a13.919 13.919 0 00-3.809 10.051c.018.743.107 1.486.248 2.23.142.742.336 1.468.585 2.158.23.654-.089 1.363-.744 1.593a1.229 1.229 0 01-1.595-.743 17 17 0 01-.709-2.548 15.604 15.604 0 01-.283-2.637c-.142-4.547 1.595-8.74 4.5-11.82a16.521 16.521 0 0111.552-5.184 16.505 16.505 0 0111.853 4.494 16.481 16.481 0 015.192 11.536 16.85 16.85 0 01-.23 3.31 17.735 17.735 0 01-.887 3.184zM11.486 42.91a1.242 1.242 0 01-.673 1.628 1.244 1.244 0 01-1.63-.673 24.386 24.386 0 01-.762-2.106 21.91 21.91 0 01-.354-1.274l-5.227-.583c-.62-.071-1.133-.319-1.506-.69a2.246 2.246 0 01-.708-1.575l-.053-1.93-.071-1.945a2.227 2.227 0 01.62-1.611c.354-.39.85-.672 1.452-.779l5.192-.902a23.72 23.72 0 011.133-4.017c.514-1.327 1.117-2.6 1.843-3.786l-3.296-4.123a2.662 2.662 0 01-.567-1.54 2.216 2.216 0 01.62-1.61l1.33-1.416 1.328-1.415a2.368 2.368 0 011.577-.708 2.534 2.534 0 011.576.479l4.306 3.043a23.577 23.577 0 017.636-3.433l.585-5.22a2.59 2.59 0 01.69-1.504c.426-.443.993-.69 1.596-.708l1.93-.053 1.949-.053a2.32 2.32 0 011.613.602c.39.354.673.849.78 1.45l.885 5.185c1.4.265 2.747.637 4.04 1.132 1.328.514 2.605 1.115 3.79 1.84l4.112-3.273a2.628 2.628 0 011.559-.584c.602 0 1.187.212 1.612.62l1.418 1.327 1.4 1.327c.442.407.69.973.725 1.575.018.53-.123 1.08-.496 1.575L50.41 21.5a23.611 23.611 0 013.438 7.609l.992.123c.69.07 1.187.69 1.116 1.363a1.274 1.274 0 01-1.382 1.114l-1.896-.212a1.28 1.28 0 01-1.08-.99 20.645 20.645 0 00-3.685-8.21 1.271 1.271 0 01-.053-1.522l3.543-5.025-1.312-1.222-1.31-1.238-4.767 3.787a1.225 1.225 0 01-1.506.106 21.922 21.922 0 00-4.057-2.07c-1.4-.532-2.87-.92-4.394-1.15a1.22 1.22 0 01-1.081-1.028l-1.046-6.05-1.805.052-1.807.053-.674 6.105a1.26 1.26 0 01-.993 1.08 20.945 20.945 0 00-8.22 3.68 1.278 1.278 0 01-1.524.071l-5.032-3.54-1.24 1.31-1.222 1.31 3.79 4.76a1.22 1.22 0 01.107 1.504 20.813 20.813 0 00-2.072 4.052 21.442 21.442 0 00-1.152 4.37c-.053.549-.46.99-1.028 1.098l-6.06 1.044.054 1.805.053 1.787 6.113.69a1.22 1.22 0 011.08.99c.142.655.3 1.293.496 1.929.196.637.426 1.255.692 1.875zm42.823-6.335a1.234 1.234 0 011.437 1.01 1.249 1.249 0 01-1.01 1.45l-.586.089c-.07.389-.16.76-.247 1.132a20.138 20.138 0 01-.567 1.981 1.255 1.255 0 01-1.576.779 1.241 1.241 0 01-.78-1.557c.177-.549.336-1.15.496-1.787.142-.584.247-1.168.337-1.752.07-.548.478-1.008 1.027-1.096l1.47-.249z"/><path d="M26.298 35.742c-.585.354-1.364.177-1.719-.406a1.237 1.237 0 01.39-1.717c.55-.336 1.134-.636 1.736-.885.585-.23 1.205-.424 1.843-.566a11.053 11.053 0 014.306-.089c1.435.248 2.817.78 4.04 1.557.584.372.761 1.133.389 1.716a1.236 1.236 0 01-1.719.39 8.683 8.683 0 00-3.136-1.203 8.553 8.553 0 00-3.348.07 7.484 7.484 0 00-1.435.443 8.868 8.868 0 00-1.347.69zm2.71 4.177c-.584.354-1.364.177-1.718-.407-.354-.584-.177-1.363.408-1.716.3-.177.602-.337.938-.46.32-.124.656-.23.993-.301a6.24 6.24 0 012.356-.07c.78.141 1.542.424 2.215.831.585.372.78 1.133.407 1.717a1.24 1.24 0 01-1.7.424 4.082 4.082 0 00-1.33-.513 3.828 3.828 0 00-2.568.495zm-5.687-8.565a1.247 1.247 0 11-1.418-2.052 14.96 14.96 0 012.711-1.504 15.32 15.32 0 012.96-.973 15.449 15.449 0 016.43-.053 15.875 15.875 0 015.954 2.548c.566.39.709 1.15.319 1.716a1.254 1.254 0 01-1.736.318 13.671 13.671 0 00-5.032-2.14 13.344 13.344 0 00-5.422.053c-.868.195-1.7.46-2.48.814-.814.353-1.577.778-2.286 1.273zM70.468 8.122c2.25 0 4.093 1.84 4.093 4.087a4.092 4.092 0 01-4.093 4.088 4.091 4.091 0 01-4.092-4.088 4.092 4.092 0 014.092-4.087zM59.023 0c1.736 0 3.295.708 4.43 1.84a6.228 6.228 0 010 8.848 6.228 6.228 0 01-4.43 1.822 6.262 6.262 0 01-4.43-1.822 6.244 6.244 0 01-1.825-4.424c0-1.734.69-3.292 1.825-4.423A6.274 6.274 0 0159.023 0zm2.675 3.592a3.824 3.824 0 00-2.675-1.097 3.781 3.781 0 00-2.658 1.097 3.815 3.815 0 00-1.098 2.672c0 1.026.425 1.982 1.098 2.654a3.781 3.781 0 002.658 1.097 3.827 3.827 0 002.675-1.097 3.773 3.773 0 001.098-2.654 3.816 3.816 0 00-1.098-2.672zm8.77 7.025c-.886 0-1.595.708-1.595 1.592 0 .885.71 1.593 1.595 1.593.886 0 1.595-.708 1.595-1.593 0-.884-.71-1.592-1.595-1.592zM56.79 78.846a1.25 1.25 0 01-1.346 1.15 1.25 1.25 0 01-1.153-1.344l4.554-56.994c.16-2 1.329-3.468 3.437-3.468h10.223c2.108 0 3.296 1.469 3.455 3.468l4.536 56.994c.053.69-.46 1.291-1.134 1.344a1.25 1.25 0 01-1.346-1.15l-4.554-56.994c-.053-.69-.177-1.167-.956-1.167H62.283c-.762 0-.904.46-.957 1.168L56.79 78.846z"/></g><defs><clipPath id="gclip0_167_142"><path fill="#fff" transform="translate(.5)" d="M0 0h80v80H0z"/></clipPath></defs></svg><svg fill="none" viewBox="0 0 36 36" id="industry" xmlns="http://www.w3.org/2000/svg"><path d="M15.75 12.375c0-.93.757-1.688 1.688-1.688h3.375c.93 0 1.687.758 1.687 1.688v.563h1.125v-.563a2.816 2.816 0 00-2.813-2.813h-3.375a2.816 2.816 0 00-2.812 2.813v.563h1.125v-.563zm-2.812 5.063h4.5v2.25h-4.5v-2.25zm-4.5-2.25V7.311H2.811v7.875h5.626zM4.5 9h2.25v4.5H4.5V9zM1.688 1.688h7.875v1.125H1.686V1.687zm7.657 2.25h-7.44l.75 2.25h5.94l.75-2.25zm3.593 16.875h4.5v2.25h-4.5v-2.25zm4.5-5.625c0-.62-.505-1.126-1.125-1.126h-2.25c-.62 0-1.126.505-1.126 1.126v1.124h4.5v-1.125zm7.875 0c0-.62-.505-1.126-1.125-1.126h-2.25c-.62 0-1.125.505-1.125 1.126v1.124h4.5v-1.125zm7.841 14.625l-1.06-18H29.78l-.9 15.317L30.937 29v.811h2.216zM20.813 17.438h4.5v2.25h-4.5v-2.25zm0 5.625h3.592l.907.825v-3.076h-4.5v2.25zm-16.875 6.75h13.5v4.5h-13.5v-4.5zm27 1.125h3.375v3.375h-3.376v-3.376z" fill="#fff"/><path d="M9.563 16.313H1.686v18h1.125v-5.327l6.75-5.624v-7.05zm-5.626 9H2.813v-1.125h1.124v1.125zm0-2.25H2.813v-1.125h1.124v1.125zm0-2.25H2.813v-1.125h1.124v1.125zm0-2.25H2.813v-1.125h1.124v1.125zm2.25 6.75H5.063v-1.125h1.125v1.125zm0-2.25H5.063v-1.125h1.125v1.125zm0-2.25H5.063v-1.125h1.125v1.125zm0-2.25H5.063v-1.125h1.125v1.125zm2.25 4.5H7.313v-1.125h1.125v1.125zm0-2.25H7.313v-1.125h1.125v1.125zm0-2.25H7.313v-1.125h1.125v1.125zm13.501 11.25h4.5v4.5h-4.5v-4.5z" fill="#fff"/><path d="M10.329 24.188l-5.4 4.5h12.853l4.95-4.5H10.33zm8.234 5.311v4.814h2.25v-5.626h6.75v5.625h2.25V29.5l-5.625-5.113-5.625 5.113zM33.188 3.938H31.5c0-1.241-1.01-2.25-2.25-2.25h-.563v1.125h.563c.62 0 1.125.504 1.125 1.124v1.126h2.813a1.126 1.126 0 010 2.25A1.69 1.69 0 0031.5 9v.563h1.125V9c0-.31.253-.563.563-.563 1.24 0 2.25-1.009 2.25-2.25 0-1.24-1.01-2.25-2.25-2.25zm-10.125 4.5h5.625c.31 0 .562.252.562.562v.563h1.125V9a1.69 1.69 0 00-1.688-1.688h-5.625a.563.563 0 010-1.125H27V5.063h-2.25a1.126 1.126 0 010-2.25h.563V1.688h-.563a2.253 2.253 0 00-2.25 2.25c0 .42.124.81.326 1.148a1.685 1.685 0 00-1.451 1.664c0 .93.757 1.688 1.688 1.688zm3.375-6.75h1.125v1.125h-1.125V1.687z" fill="#fff"/></svg><svg fill="none" viewBox="0 0 36 36" id="like" xmlns="http://www.w3.org/2000/svg"><path d="M33.82 23.344c0-1.16-.949-2.11-2.11-2.11 1.161 0 2.11-.949 2.11-2.109 0-1.16-.949-2.11-2.11-2.11h-8.647c1.286-3.86 1.265-5.09 1.265-7.453a3.174 3.174 0 00-3.164-3.164h-.633c-.4 0-.907.317-1.012.802-1.044 4.063-2.675 8.725-6.792 9.669v15.262l3.649 1.211a10.5 10.5 0 003.333.549h9.893a2.11 2.11 0 000-4.22h2.109c1.16 0 2.11-.948 2.11-2.108 0-1.16-.95-2.11-2.11-2.11 1.16 0 2.11-.95 2.11-2.11zM7.453 14.906H3.234c-.583 0-1.054.472-1.054 1.055v18.984c0 .583.471 1.055 1.054 1.055h4.22a3.168 3.168 0 003.163-3.164V18.07a3.168 3.168 0 00-3.164-3.164zm0 16.875a1.055 1.055 0 110-2.11 1.055 1.055 0 010 2.11zM16.689 4.65l-1.491-1.49a1.054 1.054 0 10-1.492 1.49l1.492 1.492a1.054 1.054 0 101.491-1.491zm11.933-1.49a1.054 1.054 0 00-1.491 0l-1.492 1.49a1.054 1.054 0 101.492 1.492l1.491-1.491a1.054 1.054 0 000-1.492zM21.164 0c-.59 0-1.055.464-1.055 1.055v2.18c0 .59.464 1.054 1.055 1.054.59 0 1.055-.464 1.055-1.055v-2.18c0-.59-.464-1.054-1.055-1.054z" fill="#fff"/></svg><svg fill="none" viewBox="0 0 80 80" id="medic" xmlns="http://www.w3.org/2000/svg"><path d="M45.194 71.969c.647 0 1.171-.525 1.171-1.172v-3.16a1.172 1.172 0 00-2.343 0v3.16c0 .647.524 1.172 1.172 1.172zm-10.392.018c.647 0 1.172-.525 1.172-1.172v-3.156a1.172 1.172 0 00-2.344 0v3.156c0 .647.525 1.172 1.172 1.172zm32.351-19.08H73.9a1.172 1.172 0 000-2.344h-6.748a1.172 1.172 0 000 2.344zm0 7.707H73.9a1.172 1.172 0 000-2.344h-6.748a1.172 1.172 0 000 2.344zm0 7.706H73.9a1.172 1.172 0 000-2.343h-6.748a1.172 1.172 0 000 2.344zm0-23.12H73.9a1.172 1.172 0 000-2.344h-6.748a1.172 1.172 0 000 2.343zm-54.305 5.363h-6.75a1.172 1.172 0 000 2.344h6.75a1.172 1.172 0 000-2.344zm0 7.707h-6.75a1.172 1.172 0 000 2.344h6.75a1.172 1.172 0 000-2.344zm0 7.707h-6.75a1.172 1.172 0 000 2.344h6.75a1.172 1.172 0 000-2.344zm0-23.121h-6.75a1.172 1.172 0 000 2.343h6.75a1.172 1.172 0 000-2.343zM31.791 30.01h-5.424c-.918 0-1.664.748-1.664 1.668v4.927c0 .92.746 1.67 1.664 1.67h5.424c.92 0 1.67-.75 1.67-1.67v-4.927a1.67 1.67 0 00-1.67-1.669zm-.674 5.92h-4.07v-3.577h4.07v3.578zm6.171-5.92c-.92 0-1.67.748-1.67 1.668v4.927c0 .92.75 1.67 1.67 1.67h5.424a1.67 1.67 0 001.665-1.67v-4.927a1.67 1.67 0 00-1.665-1.669h-5.424zm4.745 5.92h-4.07v-3.577h4.07v3.578zm6.176 2.344h5.42a1.67 1.67 0 001.668-1.669v-4.927a1.67 1.67 0 00-1.669-1.669h-5.42a1.67 1.67 0 00-1.668 1.67v4.926c0 .92.748 1.67 1.669 1.67zm.674-5.921h4.07v3.578h-4.07v-3.578zM31.791 40.75h-5.424c-.918 0-1.664.748-1.664 1.668v4.928c0 .917.746 1.664 1.664 1.664h5.424c.92 0 1.67-.747 1.67-1.664v-4.928c0-.92-.75-1.669-1.67-1.669zm-.674 5.916h-4.07v-3.573h4.07v3.573zm11.595-5.916h-5.424c-.92 0-1.67.748-1.67 1.668v4.928c0 .917.75 1.664 1.67 1.664h5.424c.918 0 1.664-.747 1.664-1.664v-4.928c0-.92-.746-1.669-1.664-1.669zm-.68 5.916h-4.07v-3.573h4.07v3.573zm6.177 2.344h5.42c.92 0 1.668-.747 1.668-1.664v-4.928a1.67 1.67 0 00-1.669-1.669h-5.42a1.67 1.67 0 00-1.668 1.67v4.927c0 .917.748 1.664 1.669 1.664zm.674-5.917h4.07v3.573h-4.07v-3.573z" fill="#323232"/><path d="M77.947 28.269h-14.55V24.93h.429a2.2 2.2 0 002.198-2.198v-5.271a2.2 2.2 0 00-2.198-2.198h-9.45V2.22a1.958 1.958 0 00-1.96-1.954H27.58a1.956 1.956 0 00-1.954 1.954v13.044h-9.45a2.203 2.203 0 00-2.203 2.198v5.27c0 1.212.988 2.198 2.202 2.198h.429v3.339H2.053A2.058 2.058 0 000 30.327v48.236c0 .647.525 1.171 1.172 1.171h77.656c.647 0 1.172-.524 1.172-1.171V30.327a2.058 2.058 0 00-2.053-2.058zM54.375 17.608h9.305v4.979h-9.305v-4.98zm-38.06 4.979v-4.98h9.31v4.98h-9.31zm-13.97 8.026h14.258v4.536H2.345v-4.537zm36.484 29.299V77.39h-9.974V59.456H38.92c-.06.14-.092.294-.092.456zM51.141 77.39h-9.97V59.91c0-.16-.032-.314-.09-.454h10.06V77.39zm9.913 0h-7.57V59.378c0-1.249-1.04-2.265-2.32-2.265H28.836c-1.282 0-2.324 1.016-2.324 2.265v18.013h-7.565V59.338a1.172 1.172 0 10-2.344 0V77.39H2.345V37.492h14.258v16.322a1.172 1.172 0 002.344 0V24.93h18.997a1.172 1.172 0 000-2.343h-9.975V2.609h24.063v19.978h-8.569a1.172 1.172 0 000 2.343h17.592v52.46zm16.602 0H63.397V37.492h14.26v39.899zm0-42.242H63.397v-4.537h14.26v4.537z" fill="#323232"/><path d="M43.74 17.561v-1.224h1.223a2.662 2.662 0 002.66-2.659v-2.165a2.662 2.662 0 00-2.66-2.659H43.74v-1.22a2.66 2.66 0 00-2.654-2.658h-2.17a2.662 2.662 0 00-2.659 2.659v1.22h-1.22a2.662 2.662 0 00-2.658 2.658v2.165a2.662 2.662 0 002.659 2.66h1.22v1.223a2.662 2.662 0 002.658 2.66h2.17a2.66 2.66 0 002.654-2.66zm-5.14 0v-2.395c0-.648-.525-1.172-1.172-1.172h-2.391a.32.32 0 01-.315-.316v-2.165a.32.32 0 01.315-.315h2.391c.647 0 1.172-.525 1.172-1.172V7.635a.32.32 0 01.315-.315h2.17c.169 0 .31.144.31.315v2.391c0 .647.525 1.172 1.173 1.172h2.396a.32.32 0 01.315.315v2.165a.32.32 0 01-.316.316h-2.395c-.648 0-1.172.524-1.172 1.172v2.395a.318.318 0 01-.311.316h-2.17a.32.32 0 01-.315-.316z" fill="#323232"/></svg><svg fill="none" viewBox="0 0 25 26" id="phone-icon" xmlns="http://www.w3.org/2000/svg"><path d="M24.475 22.582v-3.613a2.41 2.41 0 00-2.071-2.445 15.465 15.465 0 01-3.384-.843 2.408 2.408 0 00-2.541.542l-1.53 1.53a19.269 19.269 0 01-7.226-7.227l1.53-1.53a2.409 2.409 0 00.542-2.54 15.463 15.463 0 01-.843-3.384A2.409 2.409 0 006.543 1H2.93A2.409 2.409 0 00.533 3.626a23.833 23.833 0 003.698 10.441 23.484 23.484 0 007.226 7.226A23.834 23.834 0 0021.85 24.99a2.408 2.408 0 002.625-2.408z" stroke="#000" stroke-linecap="round" stroke-linejoin="round"/></svg><svg fill="none" viewBox="0 0 80 80" id="premises" xmlns="http://www.w3.org/2000/svg"><g clip-path="url(#lclip0_167_126)" fill="#323232"><path d="M76.869 3.732H3.13A3.135 3.135 0 000 6.862v11.359a7.056 7.056 0 003.292 5.964v15.203a1.566 1.566 0 103.132 0V25.247a7.045 7.045 0 006.123-2.601 7.044 7.044 0 0010.981 0 7.045 7.045 0 009.416 1.435v49.053l-26.52-.001V53.497a1.566 1.566 0 10-3.132 0v19.636a3.14 3.14 0 003.136 3.135h67.166a3.14 3.14 0 003.136-3.135V24.17A7.055 7.055 0 0080 18.22V6.864a3.134 3.134 0 00-3.131-3.131zM65.888 18.22a3.93 3.93 0 01-3.925 3.925 3.93 3.93 0 01-3.925-3.925V6.863h7.85V18.22zm-10.982 0a3.93 3.93 0 01-3.925 3.925 3.93 3.93 0 01-3.925-3.925V6.863h7.85V18.22zm-10.981 0A3.93 3.93 0 0140 22.146a3.93 3.93 0 01-3.925-3.925V6.863h7.85V18.22zM7.056 22.146a3.93 3.93 0 01-3.925-3.925V6.863h7.85V18.22a3.93 3.93 0 01-3.925 3.925zm10.982 0a3.93 3.93 0 01-3.925-3.925V6.863h7.85V18.22a3.93 3.93 0 01-3.925 3.925zm10.98 0a3.93 3.93 0 01-3.924-3.925V6.863h7.85V18.22a3.93 3.93 0 01-3.925 3.925zm7.057 50.989v-9.427h37.52v9.43l-37.52-.003zm37.52-12.558h-37.52V24.081a7.044 7.044 0 009.416-1.435 7.045 7.045 0 0010.98 0 7.045 7.045 0 0010.982 0 7.045 7.045 0 006.146 2.6l-.004 35.331zm3.274-42.356a3.93 3.93 0 01-3.925 3.925 3.93 3.93 0 01-3.925-3.925V6.863h7.85V18.22z"/><path d="M27.228 48.051a1.566 1.566 0 100-3.13h-4.377a1.566 1.566 0 100 3.13h4.377zm38.21-5.827a1.582 1.582 0 00-.415-.94l-7.216-7.723a3.281 3.281 0 00-2.39-1.038c-.902 0-1.773.378-2.39 1.038l-7.215 7.724a1.59 1.59 0 00-.422 1.068v8.922a3.135 3.135 0 003.132 3.131h13.791a3.135 3.135 0 003.131-3.13v-8.923l-.006-.13zm-10.123-6.526c.01-.01.042-.044.103-.044a.13.13 0 01.101.044l4.755 5.09H50.56l4.755-5.09zm6.998 15.577H48.522v-7.356h13.791l.002 7.356h-.002zM4.858 48.051a1.566 1.566 0 100-3.13 1.566 1.566 0 000 3.13z"/></g><defs><clipPath id="lclip0_167_126"><path fill="#fff" d="M0 0h80v80H0z"/></clipPath></defs></svg><svg fill="none" viewBox="0 0 81 80" id="settings" xmlns="http://www.w3.org/2000/svg"><g clip-path="url(#mclip0_167_115)" fill="#323232"><path d="M46.75 80h-12.5A1.25 1.25 0 0133 78.75v-5.843a33.35 33.35 0 01-10.468-4.334l-4.125 4.13a1.286 1.286 0 01-1.767 0l-8.844-8.838a1.25 1.25 0 010-1.768l4.131-4.125A33.351 33.351 0 017.594 47.5H1.75A1.25 1.25 0 01.5 46.25v-12.5a1.25 1.25 0 011.25-1.25h5.843a33.35 33.35 0 014.335-10.468l-4.126-4.125a1.25 1.25 0 010-1.767l8.84-8.839a1.25 1.25 0 011.767 0l4.125 4.125A33.376 33.376 0 0133 7.093V1.25A1.25 1.25 0 0134.25 0h12.5A1.25 1.25 0 0148 1.25v5.843c3.71.837 7.25 2.303 10.468 4.333l4.124-4.125a1.286 1.286 0 011.768 0l8.839 8.839a1.25 1.25 0 010 1.767l-4.125 4.125a33.576 33.576 0 012.581 4.974l-2.308.963a31.12 31.12 0 00-2.91-5.405 1.25 1.25 0 01.153-1.583l3.964-3.962-7.073-7.071-3.962 3.963a1.25 1.25 0 01-1.583.153 30.891 30.891 0 00-11.425-4.73A1.25 1.25 0 0145.5 8.106V2.5h-10v5.606a1.25 1.25 0 01-1.011 1.228 30.89 30.89 0 00-11.425 4.73 1.25 1.25 0 01-1.583-.153L17.52 9.948l-7.071 7.07 3.963 3.963a1.25 1.25 0 01.153 1.583 30.923 30.923 0 00-4.73 11.425A1.25 1.25 0 018.606 35H3v10h5.606a1.25 1.25 0 011.228 1.011 30.924 30.924 0 004.73 11.425 1.25 1.25 0 01-.153 1.583l-3.963 3.962 7.07 7.071 3.963-3.963a1.25 1.25 0 011.583-.153 30.924 30.924 0 0011.425 4.73 1.25 1.25 0 011.011 1.228V77.5h10v-5.606a1.25 1.25 0 011.011-1.228 31.182 31.182 0 004.806-1.343l.865 2.346A33.822 33.822 0 0148 72.908v5.842A1.25 1.25 0 0146.75 80z"/><path d="M40.5 63.75a23.75 23.75 0 1119.792-36.875L58.21 28.25a21.24 21.24 0 10-10.625 31.786l.832 2.359A23.718 23.718 0 0140.5 63.75z"/><path d="M14.25 40h-2.5A28.781 28.781 0 0140.5 11.25v2.5A26.28 26.28 0 0014.25 40zM55.5 80a5 5 0 01-5-5V61.25A1.25 1.25 0 0151.75 60h7.5a1.25 1.25 0 011.25 1.25V75a5 5 0 01-5 5zM53 62.5V75a2.5 2.5 0 005 0V62.5h-5z"/><path d="M57.634 62.134l-1.768-1.768L58 58.233V57.5h-5v.733l2.134 2.133-1.768 1.768-2.5-2.5a1.25 1.25 0 01-.366-.884v-2.5A1.25 1.25 0 0151.75 55h7.5a1.25 1.25 0 011.25 1.25v2.5c0 .331-.132.65-.366.884l-2.5 2.5zM59.25 73.75h-7.5v2.5h7.5v-2.5zM55.5 42.5a3.75 3.75 0 01-3.75-3.75v-7.5A1.25 1.25 0 0153 30h5a1.25 1.25 0 011.25 1.25v7.5a3.75 3.75 0 01-3.75 3.75zm-1.25-10v6.25a1.25 1.25 0 002.5 0V32.5h-2.5z"/><path d="M56.75 41.25h-2.5v15h2.5v-15zM70.5 80a5 5 0 01-5-5V50.517l-4.634-4.633A1.25 1.25 0 0160.5 45V35c0-.331.132-.65.366-.884l3.75-3.75A1.25 1.25 0 0165.5 30H68a1.25 1.25 0 011.25 1.25V40h2.5v-8.75A1.25 1.25 0 0173 30h2.5c.332 0 .65.132.884.366l3.75 3.75c.234.235.366.553.366.884v10c0 .331-.132.65-.366.884L75.5 50.517V75a5 5 0 01-5 5zM63 44.483l4.634 4.633c.234.235.366.553.366.884v25a2.5 2.5 0 005 0V50c0-.331.132-.65.366-.884L78 44.483v-8.965L74.983 32.5h-.733v8.75A1.25 1.25 0 0173 42.5h-5a1.25 1.25 0 01-1.25-1.25V32.5h-.733L63 35.517v8.965z"/></g><defs><clipPath id="mclip0_167_115"><path fill="#fff" transform="translate(.5)" d="M0 0h80v80H0z"/></clipPath></defs></svg><svg fill="none" viewBox="0 0 36 36" id="stopwatch" xmlns="http://www.w3.org/2000/svg"><path d="M25.875.844H20.25a.844.844 0 00-.844.844v1.687c0 .466.378.844.844.844h5.625a.844.844 0 00.844-.844V1.687a.844.844 0 00-.844-.843zM9.563 13.219H3.936a.843.843 0 100 1.687h5.626a.843.843 0 100-1.687zm-.282 7.594a.844.844 0 00-.844-.844H2.814a.843.843 0 100 1.687h5.624a.843.843 0 00.844-.843zM9 23.344H5.062a.843.843 0 100 1.687H9a.843.843 0 100-1.687zm.281-5.906a.844.844 0 00-.844-.844H1.125a.843.843 0 100 1.687h7.313a.843.843 0 00.843-.843zm13.782 1.687V9.562c-5.273 0-9.563 4.29-9.563 9.563 0 5.273 4.29 9.563 9.563 9.563 5.272 0 9.562-4.29 9.562-9.563h-9.563z" fill="#fff"/><path d="M32.317 10.501l.905-.904a.844.844 0 10-1.194-1.194l-.941.942a12.604 12.604 0 00-6.337-2.764V5.062h-3.375v1.52a12.604 12.604 0 00-6.337 2.763l-.941-.942a.844.844 0 10-1.194 1.193l.905.905a12.609 12.609 0 00-3.402 8.624c0 6.979 5.678 12.656 12.656 12.656 6.98 0 12.657-5.677 12.657-12.656a12.609 12.609 0 00-3.402-8.624zm-9.255 19.03a10.407 10.407 0 110-20.813 10.407 10.407 0 010 20.813z" fill="#fff"/></svg></svg>